<svg xmlns="http://www.w3.org/2000/svg"  viewBox="0 0 64 64" width="64px" height="64px" baseProfile="basic"><polygon fill="#5dbc9d" points="57,47 32,62 7,47 7,17 32,2 57,17"/><polygon fill="#ced9ed" points="46,40.4 32,48.8 18,40.4 18,23.6 32,15.2 46,23.6"/><polygon fill="#ed7899" points="7.519,17.452 32,32 32,62 6.765,46"/><polygon fill="#97e0bb" points="32.3,2.75 32.3,15.2 45.184,23.11 55.6,17"/><polygon fill="#f7a1c8" points="7.875,47.125 18,41.096 31.15,49 31.375,60.75"/><polygon fill="#e2e9f7" points="18,23.6 32,32 32,48.8 18,40"/><polygon fill="#7bbeeb" points="32,32 57,17 57,47 32,61"/><polygon fill="#acb7d0" points="32,31.742 46,24 46,41 32,49"/><polygon fill="#ace3ff" points="32,48.1 32,61.5 56.3,47.05 45.5,40.7"/><polygon fill="none" stroke="#8d6c9f" stroke-linecap="round" stroke-linejoin="round" stroke-miterlimit="10" stroke-width="2" points="46,40.4 32,48.8 18,40.4 18,23.6 32,15.2 46,23.6"/><line x1="32" x2="32" y1="2" y2="15" fill="none" stroke="#8d6c9f" stroke-linecap="round" stroke-linejoin="round" stroke-miterlimit="10" stroke-width="2"/><line x1="46" x2="57" y1="40.4" y2="47" fill="none" stroke="#8d6c9f" stroke-linecap="round" stroke-linejoin="round" stroke-miterlimit="10" stroke-width="2"/><path fill="#8d6c9f" d="M52.989,28h-2c-0.552,0-1-0.448-1-1s0.448-1,1-1h2c0.552,0,1,0.448,1,1S53.541,28,52.989,28z"/><path fill="#8d6c9f" d="M52.989,33h-2c-0.552,0-1-0.448-1-1s0.448-1,1-1h2c0.552,0,1,0.448,1,1S53.541,33,52.989,33z"/><path fill="#8d6c9f" d="M52.989,38h-2c-0.552,0-1-0.448-1-1s0.448-1,1-1h2c0.552,0,1,0.448,1,1S53.541,38,52.989,38z"/><line x1="18" x2="7" y1="40.4" y2="47" fill="none" stroke="#8d6c9f" stroke-linecap="round" stroke-linejoin="round" stroke-miterlimit="10" stroke-width="2"/><line x1="32" x2="32" y1="39" y2="41.096" fill="none" stroke="#8d6c9f" stroke-linecap="round" stroke-linejoin="round" stroke-miterlimit="10" stroke-width="2"/><line x1="32" x2="32" y1="32" y2="35" fill="none" stroke="#8d6c9f" stroke-linecap="round" stroke-linejoin="round" stroke-miterlimit="10" stroke-width="2"/><line x1="32" x2="32" y1="61.135" y2="45" fill="none" stroke="#8d6c9f" stroke-linecap="round" stroke-linejoin="round" stroke-miterlimit="10" stroke-width="2"/><polygon fill="none" stroke="#8d6c9f" stroke-linecap="round" stroke-linejoin="round" stroke-miterlimit="10" stroke-width="2" points="57,47 32,62 7,47 7,17 32,2 57,17"/><polyline fill="none" stroke="#8d6c9f" stroke-linecap="round" stroke-linejoin="round" stroke-miterlimit="10" stroke-width="2" points="7,17 32,32 57,17"/></svg>